<?xml version="1.0" standalone="no"?>
<!DOCTYPE svg PUBLIC "-//W3C//DTD SVG 20010904//EN"
 "http://www.w3.org/TR/2001/REC-SVG-20010904/DTD/svg10.dtd">
<svg version="1.0" xmlns="http://www.w3.org/2000/svg"
 width="8504.000000pt" height="8504.000000pt" viewBox="0 0 8504.000000 8504.000000"
 preserveAspectRatio="xMidYMid meet">

<g transform="translate(0.000000,8504.000000) scale(0.100000,-0.100000)"
fill="#000000" stroke="none">
<path d="M62738 70590 c-115 -18 -186 -43 -301 -106 -213 -115 -432 -261 -617
-410 -52 -42 -156 -122 -230 -179 -404 -306 -491 -390 -834 -800 -367 -438
-708 -863 -891 -1110 -793 -1067 -1556 -2264 -2264 -3550 -73 -132 -135 -243
-139 -247 -4 -3 -115 52 -247 124 -293 158 -970 497 -1275 637 -2779 1279
-5794 1996 -8905 2120 -708 28 -1639 18 -2365 -25 -3698 -217 -7309 -1265
-10585 -3069 -1748 -963 -3387 -2136 -4875 -3489 -611 -555 -1325 -1274 -1875
-1886 -3501 -3896 -5712 -8741 -6324 -13860 -168 -1402 -214 -2858 -136 -4265
82 -1458 295 -2893 646 -4333 32 -135 58 -246 57 -247 -21 -18 -402 -181 -708
-303 -1759 -702 -3648 -1134 -5645 -1291 -644 -51 -922 -62 -1675 -66 -1539
-8 -2318 66 -3357 320 -645 158 -984 267 -2308 743 -1087 390 -1598 516 -2185
536 l-155 6 155 -24 c476 -74 884 -204 1403 -447 228 -106 492 -244 1022 -536
877 -482 1263 -672 1805 -886 1454 -576 3025 -787 4985 -672 1769 104 3374
370 4910 815 649 188 1404 454 1964 692 51 21 94 38 96 36 1 -2 42 -124 90
-273 289 -893 606 -1706 1003 -2570 128 -279 480 -984 632 -1265 915 -1692
2045 -3267 3349 -4670 231 -248 573 -600 583 -600 5 0 -102 116 -238 258 -729
758 -1280 1405 -1876 2197 -1492 1987 -2676 4275 -3439 6649 -49 153 -88 280
-86 282 1 2 88 41 192 87 1165 517 2198 1111 3200 1841 1667 1214 3155 2758
4572 4741 247 346 452 646 763 1117 162 246 297 447 300 447 3 0 32 -55 65
-122 101 -206 300 -489 465 -661 237 -247 536 -449 944 -638 360 -167 581
-243 896 -308 80 -16 204 -43 275 -60 429 -102 952 -157 1670 -176 221 -6 269
-4 410 15 88 11 268 30 400 41 132 11 292 27 355 36 63 9 165 18 225 20 178 7
290 24 455 67 l155 40 334 5 c289 3 333 2 328 -10 -3 -8 -19 -62 -37 -119 -94
-313 -177 -542 -212 -591 -24 -34 -164 -315 -238 -478 -96 -211 -126 -263
-377 -645 -469 -715 -896 -1401 -1460 -2345 -257 -432 -294 -495 -455 -795
-416 -772 -620 -1190 -738 -1510 -18 -49 -60 -152 -92 -228 -93 -220 -151
-433 -203 -744 -74 -443 -89 -863 -40 -1141 34 -194 91 -365 144 -429 18 -22
31 -49 31 -65 0 -15 4 -29 9 -32 5 -3 25 -48 45 -99 l36 -94 193 -189 c192
-190 339 -311 459 -377 214 -120 603 -266 829 -311 322 -64 839 -82 1231 -41
445 46 1041 177 1481 326 964 324 1921 730 2680 1135 1128 602 2395 1484 3547
2468 1067 912 2249 2040 2966 2831 60 66 195 215 300 330 571 626 980 1119
1444 1738 90 119 165 215 168 213 2 -3 -1 -76 -7 -163 -23 -321 -31 -646 -31
-1373 0 -768 9 -1116 35 -1422 22 -256 45 -368 165 -788 32 -113 63 -232 70
-265 25 -123 145 -357 240 -468 43 -51 120 -124 153 -144 7 -4 25 -28 41 -53
50 -77 96 -129 160 -177 84 -63 140 -87 290 -123 71 -17 168 -42 215 -55 274
-80 590 -68 900 34 228 75 546 229 735 355 367 245 632 491 978 906 165 198
642 809 783 1005 468 646 902 1427 1285 2310 43 99 97 221 120 270 42 90 173
385 204 459 l16 39 118 -114 c194 -189 365 -326 652 -521 199 -135 304 -196
526 -306 337 -166 733 -310 1105 -402 1285 -319 2640 -392 3849 -209 906 137
1816 411 2589 779 740 353 1456 802 2211 1388 224 174 306 255 351 347 67 138
40 247 -94 371 -128 119 -252 156 -375 115 -89 -30 -130 -59 -298 -208 -385
-340 -830 -674 -1251 -936 -773 -483 -1745 -894 -2403 -1017 -63 -12 -181 -41
-262 -65 -304 -90 -607 -150 -1048 -206 -551 -70 -1230 -60 -1910 27 -478 61
-1142 213 -1450 331 -711 273 -1272 604 -1659 978 -119 116 -226 237 -305 348
l-47 66 75 228 c151 461 262 884 350 1338 14 72 46 229 71 350 85 409 142 807
165 1160 15 241 14 288 -11 330 -14 23 -26 71 -34 135 -14 106 -53 215 -131
372 -53 105 -81 129 -259 218 -215 108 -258 106 -548 -37 -216 -106 -224 -113
-341 -273 -131 -178 -319 -546 -391 -763 -87 -263 -156 -582 -191 -877 -30
-254 -19 -885 21 -1158 31 -217 112 -512 188 -682 l24 -54 -29 -71 c-189 -447
-493 -1051 -786 -1560 -677 -1177 -1528 -2267 -2257 -2891 -44 -38 -118 -103
-165 -145 -200 -181 -369 -274 -569 -314 l-125 -25 -27 26 c-32 31 -49 91 -78
289 -12 77 -33 208 -46 290 -54 326 -57 408 -60 1400 -3 975 0 1097 40 1540
42 461 95 847 169 1223 l24 124 169 171 c1002 1022 2593 2771 3358 3691 1229
1480 3008 3908 4048 5525 1489 2316 2742 4670 3823 7183 155 361 375 894 501
1213 52 132 98 244 102 248 11 11 289 -305 577 -653 2064 -2497 3554 -5371
4418 -8521 1126 -4109 1114 -8540 -35 -12752 -541 -1985 -1322 -3890 -2332
-5692 -941 -1679 -2101 -3285 -3414 -4727 -202 -221 -291 -315 -596 -631 -137
-141 -244 -257 -239 -257 16 0 553 558 846 880 2073 2276 3723 4906 4846 7725
951 2389 1523 4865 1710 7410 47 648 54 871 55 1750 0 833 -5 1016 -41 1570
-334 5162 -2306 9971 -5642 13763 l-144 164 52 136 c312 816 560 1504 721
1997 325 1001 424 1318 449 1440 20 100 154 638 255 1025 313 1198 465 2004
537 2850 18 209 18 948 0 1130 -67 682 -225 1213 -496 1668 -53 88 -82 123
-162 196 -281 260 -475 396 -754 529 -132 64 -228 95 -420 138 -85 19 -131 22
-420 25 -179 1 -351 -1 -382 -6z m707 -1572 c87 -53 104 -69 210 -203 145
-184 248 -492 299 -895 23 -184 7 -954 -29 -1345 -10 -115 -23 -184 -54 -295
-55 -196 -136 -548 -231 -1000 -44 -206 -104 -481 -134 -610 -30 -129 -112
-484 -181 -789 -70 -305 -154 -647 -187 -760 -142 -488 -192 -671 -252 -911
-64 -255 -121 -441 -280 -920 -106 -319 -255 -752 -261 -758 -2 -2 -95 83
-207 190 -945 907 -1941 1710 -3048 2457 -135 91 -244 169 -242 174 5 17 288
529 450 817 645 1142 1255 2127 1800 2905 177 253 427 567 687 867 203 233
956 990 1044 1048 107 72 140 79 347 80 l180 0 89 -52z m-16275 -1967 c898
-48 1596 -114 2340 -222 2509 -363 4888 -1107 7110 -2225 315 -158 803 -416
823 -434 4 -4 -45 -106 -109 -226 -64 -120 -262 -505 -439 -854 -177 -349
-395 -777 -485 -950 -556 -1076 -1205 -2493 -1781 -3893 -1158 -2811 -2043
-5384 -2917 -8487 -736 -2611 -1515 -5910 -1822 -7715 -23 -132 -43 -247 -46
-256 -2 -8 -31 -34 -63 -57 -32 -22 -69 -54 -81 -69 -12 -15 -94 -143 -182
-283 -491 -782 -1095 -1632 -1834 -2580 -337 -432 -795 -932 -1519 -1656
-1245 -1246 -2158 -2011 -3330 -2794 -1269 -847 -2662 -1563 -3803 -1954 -565
-193 -1185 -340 -1592 -377 -297 -26 -679 -10 -944 41 -54 11 -155 27 -225 36
-394 50 -670 185 -810 395 -201 300 -136 818 199 1600 221 514 456 967 763
1474 97 159 493 753 850 1275 119 173 258 378 310 455 134 198 758 1229 997
1645 24 41 84 138 133 215 261 403 376 629 540 1060 283 741 306 820 314 1110
5 205 -5 325 -51 560 -19 96 -34 142 -71 216 -119 238 -268 410 -465 540 -41
27 -160 92 -265 144 -209 104 -307 137 -598 199 l-165 36 -294 0 c-259 0 -304
-2 -374 -20 -102 -25 -245 -40 -384 -40 -77 0 -135 -6 -188 -19 -43 -11 -127
-29 -189 -41 -62 -11 -131 -27 -153 -35 -24 -9 -101 -17 -193 -20 -151 -6
-386 -28 -475 -45 -26 -4 -48 -7 -50 -5 -2 1 262 301 585 666 2029 2289 3168
3581 3293 3734 292 358 600 829 948 1446 211 374 286 578 366 994 114 595 103
909 -50 1361 -89 266 -149 374 -333 604 -255 320 -519 517 -881 659 -387 153
-735 205 -1141 171 -91 -7 -158 -21 -305 -63 -104 -30 -250 -69 -324 -87 -212
-52 -653 -235 -848 -352 -883 -528 -1579 -1040 -2402 -1767 -509 -450 -1268
-1199 -1526 -1506 -763 -911 -1312 -1765 -1718 -2675 -169 -377 -348 -875
-401 -1115 -67 -304 -142 -778 -152 -967 l-6 -123 -241 -300 c-1209 -1510
-1987 -2396 -2926 -3335 -610 -611 -1088 -1047 -1675 -1531 -1301 -1072 -2681
-1950 -4109 -2613 -114 -54 -209 -96 -211 -94 -1 2 -30 116 -64 254 -569 2336
-782 4736 -636 7149 291 4788 1971 9398 4858 13330 1097 1494 2426 2938 3851
4183 2726 2383 5935 4165 9356 5196 2065 622 4082 957 6300 1046 277 11 1654
4 1910 -9z m11935 -3899 c1119 -757 2172 -1611 3102 -2515 l132 -129 -43 -121
c-441 -1240 -1012 -2614 -1581 -3807 -64 -135 -159 -335 -210 -445 -487 -1050
-1028 -2087 -1703 -3265 -388 -677 -1026 -1740 -1339 -2230 -1582 -2482 -2677
-3999 -4362 -6045 -551 -670 -1448 -1722 -1458 -1711 -5 4 15 102 148 716 514
2373 1130 4721 1861 7090 682 2213 1508 4544 2251 6350 784 1906 1891 4328
2547 5570 369 699 381 720 404 708 12 -6 125 -81 251 -166z m-20090 -12257
c124 -19 207 -45 310 -98 64 -33 100 -61 182 -145 57 -57 125 -138 153 -180
156 -238 197 -571 119 -982 -133 -701 -435 -1333 -994 -2080 -627 -837 -1359
-1700 -2200 -2595 -88 -93 -201 -215 -250 -270 -545 -604 -884 -967 -1359
-1459 l-231 -238 -190 6 c-208 6 -333 20 -585 67 -191 35 -293 61 -509 131
-391 126 -622 246 -778 405 -60 60 -83 94 -127 184 -30 61 -63 145 -73 186
l-17 76 27 136 c101 493 173 746 322 1126 154 394 405 894 621 1236 32 52 215
142 369 182 11 3 -2 3 -30 0 -49 -5 -211 -44 -248 -58 -58 -23 424 650 747
1045 419 511 1102 1192 1731 1725 330 280 908 725 1115 859 221 143 435 289
584 400 134 99 190 133 350 212 212 105 257 118 461 132 198 14 392 13 500 -3z
m17301 -6340 c-2 -7 -13 -12 -23 -10 -10 2 -20 4 -22 4 -3 1 6 13 20 27 20 21
25 23 27 9 2 -9 1 -22 -2 -30z m-316 -551 c-35 -275 -82 -488 -197 -899 -41
-148 -78 -272 -81 -275 -2 -3 -2 74 1 170 9 244 42 441 118 705 57 196 161
466 174 453 2 -2 -5 -71 -15 -154z"/>
<path d="M55750 24399 c-313 -38 -632 -237 -803 -500 -104 -159 -142 -291
-135 -456 6 -119 29 -190 94 -285 57 -84 125 -140 229 -188 104 -49 201 -70
324 -70 161 0 244 22 578 154 311 123 428 145 588 111 186 -39 308 -158 334
-327 29 -181 -83 -421 -270 -578 -183 -152 -402 -235 -619 -234 -177 2 -288
42 -381 141 -28 30 -52 53 -54 51 -2 -2 -23 -38 -48 -80 l-46 -77 53 -49 c85
-77 208 -134 341 -157 69 -12 257 -7 335 10 274 57 533 216 691 424 70 92 144
244 164 337 13 57 16 102 12 173 -12 217 -125 391 -311 481 -111 54 -197 73
-336 73 -151 1 -234 -20 -505 -128 -116 -46 -254 -99 -306 -116 -171 -58 -318
-49 -475 26 -174 84 -250 239 -211 428 34 170 147 343 297 456 193 145 372
211 574 211 172 0 308 -50 396 -147 l48 -53 48 82 48 81 -59 54 c-33 30 -86
67 -120 83 -125 62 -314 89 -475 69z"/>
<path d="M34031 23223 c-275 -549 -530 -1057 -567 -1130 -38 -72 -66 -134 -64
-136 7 -7 1456 -737 1461 -737 8 0 83 159 78 164 -2 2 -298 151 -657 330
l-653 326 222 438 c122 240 225 441 229 446 5 4 237 -107 516 -248 l509 -256
37 72 c20 40 37 76 38 80 0 5 -230 123 -510 263 l-510 255 225 450 225 450
658 -329 658 -329 38 75 c20 42 34 79 29 83 -11 10 -1446 730 -1455 730 -5 0
-233 -449 -507 -997z"/>
<path d="M52444 22880 c-112 -12 -239 -43 -353 -88 -410 -161 -708 -526 -787
-965 -25 -135 -22 -344 5 -476 63 -300 207 -552 423 -739 243 -211 516 -314
838 -316 166 -1 250 12 400 60 202 65 353 157 505 309 353 351 471 841 318
1325 -32 102 -114 266 -176 353 -150 210 -380 383 -625 471 -156 56 -382 83
-548 66z m262 -181 c539 -75 946 -518 971 -1060 4 -78 1 -157 -6 -209 -78
-529 -504 -926 -1028 -957 -372 -22 -759 164 -977 470 -64 90 -140 254 -172
372 -24 88 -27 119 -28 260 -1 121 4 181 17 245 75 345 312 644 622 785 193
88 405 121 601 94z"/>
<path d="M37304 22832 c4 -21 47 -395 96 -832 156 -1370 220 -1934 223 -1936
4 -3 1872 2100 1870 2105 -1 3 -41 19 -88 34 -73 25 -89 27 -99 16 -7 -8 -359
-403 -782 -879 l-769 -864 -7 44 c-4 25 -64 536 -133 1135 -68 600 -128 1106
-132 1125 -8 33 -11 35 -96 61 l-88 27 5 -36z"/>
<path d="M48555 21821 c-583 -113 -1060 -211 -1060 -216 0 -23 28 -165 33
-165 2 0 225 43 494 95 270 53 491 95 492 93 2 -2 103 -520 226 -1153 122
-632 224 -1153 226 -1156 2 -3 41 1 86 11 80 16 83 17 80 43 -1 15 -102 536
-223 1158 -121 623 -218 1133 -217 1134 2 1 221 44 488 95 267 51 487 95 489
96 2 2 -2 41 -10 86 -10 58 -19 83 -29 84 -8 1 -492 -91 -1075 -205z"/>
<path d="M40930 21844 c0 -4 -52 -342 -115 -753 -64 -410 -147 -948 -185
-1196 -39 -247 -74 -474 -79 -503 -7 -49 -6 -53 13 -57 12 -3 212 -34 446 -70
234 -36 583 -90 776 -120 194 -30 359 -55 367 -55 16 0 22 21 32 116 l7 60
-83 13 c-299 45 -1362 211 -1364 213 -2 2 32 224 74 493 72 459 78 490 96 488
11 0 52 -6 90 -12 39 -6 275 -43 525 -81 250 -39 465 -73 476 -75 20 -5 23 1
35 80 7 47 10 87 7 90 -2 3 -252 43 -554 90 -302 47 -554 87 -560 89 -7 3 15
167 65 495 71 461 77 491 96 491 11 0 180 -25 375 -55 727 -114 1054 -164
1056 -162 2 1 9 40 17 85 10 61 11 85 3 88 -6 2 -128 21 -271 43 -937 145
-1303 202 -1322 206 -13 3 -23 2 -23 -1z"/>
<path d="M44150 20302 l0 -1282 85 0 85 0 0 1025 c0 564 3 1025 8 1025 5 -1
1654 -1970 1734 -2073 17 -21 18 44 18 1271 l0 1292 -85 0 -85 0 -2 -1037 -3
-1037 -869 1039 c-478 572 -873 1044 -877 1050 -5 5 -9 -560 -9 -1273z"/>
</g>
</svg>
