<svg xmlns="http://www.w3.org/2000/svg" xmlns:xlink="http://www.w3.org/1999/xlink" width="4081.89" height="4081.89" viewBox="0 0 3061.417 3061.417"><g data-name="Capa 1"><path stroke-width=".567" stroke-miterlimit="22.926" fill="none" stroke="#231f20" d="M2222.063 2118.27c347.3-347.299 359.538-898.152 27.34-1230.346-332.199-332.198-883.047-319.965-1230.347 27.335-347.3 347.304-359.543 898.153-27.34 1230.351"/><symbol id="a"><path d="M.335.188c.003.003.006.004.01.002C.348.187.349.184.347.181V.18A.555.555 0 0 0 .199.035.302.302 0 0 0 .135.006.102.102 0 0 0 .098.001a.046.046 0 0 0-.03.012L.064.017.062.021.061.023a.043.043 0 0 0-.002.023.06.06 0 0 0 .005.019c.003.009.009.02.016.033l.018.03.018.028.007.014.004.012H.119L.112.181.103.18.085.178a.148.148 0 0 0-.058.011.045.045 0 0 0-.018.015.037.037 0 0 0-.008.026.118.118 0 0 0 .004.02.19.19 0 0 0 .038.064.337.337 0 0 0 .07.057l.01.004a.164.164 0 0 1 .011.003C.143.379.15.378.157.375A.039.039 0 0 0 .176.358.041.041 0 0 0 .18.336a.073.073 0 0 0-.005-.02C.17.307.164.296.155.285A12.56 12.56 0 0 0 .087.208a.057.057 0 0 0 .012.001l.008.002.01.001h.011A.04.04 0 0 0 .141.208.024.024 0 0 0 .155.194C.156.189.157.184.156.178L.149.158A1.161 1.161 0 0 0 .122.112L.103.084A.202.202 0 0 1 .088.056C.083.045.081.036.082.031.083.024.089.02.1.019A.066.066 0 0 1 .131.02a.344.344 0 0 1 .117.065.544.544 0 0 1 .048.048.564.564 0 0 1 .039.055M.033.222C.036.217.043.214.054.211A.08.08 0 0 1 .071.209a.826.826 0 0 1 .074.084c.007.01.012.02.014.029.003.011.002.019-.003.024C.152.351.146.352.137.351L.132.35.126.347A.274.274 0 0 1 .065.295.152.152 0 0 1 .031.228L.033.222z"/></symbol><symbol id="b"><path d="M.009.109a1.358 1.358 0 0 1 .133.172.876.876 0 0 1 .092.196l.007.026.006.026a.28.28 0 0 0 .006.026.226.226 0 0 1 .001.025C.253.589.251.595.248.598L.243.602H.238C.236.602.234.601.231.598L.222.589A.776.776 0 0 1 .151.477 1.503 1.503 0 0 1 .043.17L.032.117.028.091.027.064.028.039.03.028.031.027H.03l.005.001a.024.024 0 0 1 .009.006l.017.017A.252.252 0 0 1 .11.144c.003.01.004.018.004.025v.002L.116.17.119.169V.17A.035.035 0 0 1 .113.161.049.049 0 0 1 .116.114C.123.101.137.092.156.085A.151.151 0 0 1 .208.079a.12.12 0 0 1 .026.005.16.16 0 0 1 .069.037C.307.124.31.123.313.12S.315.114.312.111a.168.168 0 0 0-.16-.037.09.09 0 0 0-.026.012.07.07 0 0 0-.021.021.05.05 0 0 0-.009.029.073.073 0 0 0 .004.03.049.049 0 0 0 .009.015l.006.003a.006.006 0 0 0 .006 0A.022.022 0 0 0 .126.181L.129.174.13.17A.214.214 0 0 0 .108.086.21.21 0 0 0 .08.037C.073.028.067.02.06.014A.055.055 0 0 0 .046.005.03.03 0 0 0 .024.002L.017.004a.012.012 0 0 0-.005.005C.009.011.007.014.005.019L.001.035 0 .065l.001.028.004.029.011.054a1.48 1.48 0 0 0 .11.314.577.577 0 0 0 .058.096l.018.022.012.01a.077.077 0 0 0 .015.01.02.02 0 0 0 .007.001h.006a.036.036 0 0 0 .01-.002.052.052 0 0 0 .017-.012.068.068 0 0 0 .01-.033.192.192 0 0 0-.007-.058L.265.496.257.47A.86.86 0 0 0 .093.181 1.384 1.384 0 0 0 .018.1C.015.097.012.097.009.1.006.103.006.106.009.109z"/></symbol><use xlink:href="#a" transform="matrix(2039.124 0 0 -2039.124 1105.758 1945.15)" fill="#231f20"/><use xlink:href="#b" transform="matrix(2039.124 0 0 -2039.124 1784.786 1802.411)" fill="#231f20"/><path d="M1219.122 1384.094c-95.663 16.498-166.54 454.557-690.638 479.946-196.425 9.509-237.294-83.715-330.153-92.744 64.896-1.827 129.577 51.38 240.846 56.793 540.606 26.337 673.616-439.11 779.945-443.995" fill="#231f20" fill-rule="evenodd"/><symbol id="c"><path d="M.421 0v.047H.045v.255h.293v.046H.045v.256h.376V.65H0V0h.421z"/></symbol><use xlink:href="#c" transform="scale(140.80105 -140.80105) rotate(-26.609 -29.836 -26.118)" fill="#231f20"/><symbol id="d"><path d="M.37.323A.203.203 0 0 0 .442.26.143.143 0 0 0 .449.109.17.17 0 0 0 .397.05.276.276 0 0 0 .234 0a.284.284 0 0 0-.163.05.165.165 0 0 0-.069.103l.043.024a.112.112 0 0 1 .054-.09.193.193 0 0 1 .061-.03.255.255 0 0 1 .074-.011c.053 0 .098.014.135.041.035.026.053.057.053.092C.422.2.416.219.403.237a.169.169 0 0 1-.055.046A.402.402 0 0 1 .23.31L.18.318A.29.29 0 0 0 .105.34a.195.195 0 0 0-.077.064.14.14 0 0 0-.009.155c.012.021.029.04.052.057a.284.284 0 0 0 .163.05.276.276 0 0 0 .163-.05.161.161 0 0 0 .068-.102L.422.49a.103.103 0 0 1-.014.048.153.153 0 0 1-.039.042.212.212 0 0 1-.135.041.252.252 0 0 1-.073-.01.19.19 0 0 1-.102-.073.099.099 0 0 1-.014-.049.1.1 0 0 1 .023-.061.147.147 0 0 1 .104-.062C.189.363.21.359.237.356L.272.351A.43.43 0 0 0 .326.34.202.202 0 0 0 .37.323z"/></symbol><use xlink:href="#d" transform="scale(140.80247 -140.80247) rotate(29.959 37.476 18.558)" fill="#231f20"/><symbol id="e"><path d="m.295.112.246.549h.05L.295 0 0 .661h.049L.295.112z"/></symbol><use xlink:href="#e" transform="scale(140.80354 -140.80354) rotate(-17.547 -48.87 -38.513)" fill="#231f20"/><symbol id="f"><path d="M.329 0a.32.32 0 0 1 .165.045.33.33 0 0 1 .164.287.333.333 0 0 1-.164.288A.329.329 0 0 1 0 .332.33.33 0 0 1 .329 0m0 .618A.28.28 0 0 0 .574.476a.287.287 0 0 0-.245-.43.27.27 0 0 0-.142.039.278.278 0 0 0-.103.104.272.272 0 0 0-.039.143.293.293 0 0 0 .142.248.28.28 0 0 0 .142.038z"/></symbol><use xlink:href="#f" transform="scale(140.79334 -140.79334) rotate(19.366 55.4 30.48)" fill="#231f20"/><use xlink:href="#c" transform="scale(140.80183 -140.80183) rotate(-8.818 -103.754 -75.617)" fill="#231f20"/><symbol id="g"><path d="M.495 0v.661H.45v-.53L0 .669V.011h.045v.528L.495 0z"/></symbol><use xlink:href="#g" transform="matrix(140.796 0 0 -140.796 1589.328 2378.476)" fill="#231f20"/><symbol id="h"><path d="M.561.65V.604H.304V0H.258v.604H0V.65h.561z"/></symbol><use xlink:href="#h" transform="scale(140.81314 -140.81314) rotate(10.993 93.703 55.301)" fill="#231f20"/></g></svg>